<svg xmlns="http://www.w3.org/2000/svg" width="390.93" height="302.917" viewBox="0 0 390.93 302.917"><path d="M29.252-72.278C16.9-52.824,3.55-26.128-.142-13.206-2.272-5.538-.852-1.278,1.136.852c.994.994,1.7.994,2.272-.426,4.97-11.786,9.23-21.158,13.206-28.968a13,13,0,0,0,8.8,1.42c18.6-3.55,33.938-14.2,41.038-25.276,4.828-7.526,7.242-15.762,4.26-24.282-3.408-9.8-9.656-12.07-16.9-11.786-9.656.426-20.306,6.39-32.092,7.668-1.846.142-2.13.994-1.42,2.556C21.726-75.26,24.424-72.846,29.252-72.278Zm-8.52,35.784c4.26-7.952,8.236-14.484,11.928-21.016,3.976-6.816,5.4-11.786,5.4-15.62,9.372-2.7,23.572-10.082,26.554-2.272C68.444-65.462,52.54-42.458,20.732-36.494ZM152.082-12.07a12.372,12.372,0,0,0,.426-9.23c-.568-1.278-1.562-.994-2.13.284-4.544,10.366-11.786,19.88-17.466,19.454-4.544-.284-6.248-5.822-3.55-13.632,2.556-7.526,9.372-17.182,16.046-24.708,4.26-4.828.71-11.5-1.846-14.484-1.136-1.42-2.414-.994-4.26.284-5.4,3.692-10.366,6.106-15.336,6.816,2.84-7.526,5.4-17.892.426-17.75-5.68.142-19.6,18.886-9.088,23.43-2.982,5.4-7.1,8.094-11.076,8.8,0-.852.284-1.562.284-2.272.71-10.366-3.408-11.218-6.816-15.62-2.982-3.834-5.254-5.254-9.514-4.828-8.52.71-17.466,8.662-22.862,18.46-6.106,11.218-8.236,23.572-2.13,31.95C68.728,2.414,76.112,2.7,81.224.994c10.508-3.408,19.312-18.034,22.152-30.1,7.81-.284,13.632-5.112,17.608-11.5a32.535,32.535,0,0,0,17.182-5.538c-5.964,6.958-14.91,17.466-17.75,26.98-3.55,11.644.852,21.158,11.786,21.726C140.012,2.982,148.248-3.55,152.082-12.07Zm-56.658-23a10.554,10.554,0,0,1-3.55-9.372c.568-4.118,3.692-5.254,4.26-.568A32.328,32.328,0,0,1,95.424-35.074Zm-1.278,4.118a59.475,59.475,0,0,1-4.97,11.644c-7.1,12.922-15.9,18.034-19.6,14.768s-1.7-16.188,4.4-26.98A52.476,52.476,0,0,1,84.916-44.872C85.058-39.76,88.608-34.08,94.146-30.956Zm72.42-24.282C160.46-44.02,154.5-32.092,151.514-24.992,144.7-8.662,152.224,1.846,161.6,2.13c11.36.426,20.732-12.07,22.578-16.188,1.42-3.266,2.13-5.822,1.42-8.094-.568-1.988-2.13-1.7-2.982,0C177.358-11.5,169.264-1.42,162.874-1.7c-5.964-.284-7.526-9.088-2.84-19.454,5.4-11.928,13.49-25.7,19.028-35.216a42.368,42.368,0,0,1,11.076-.568c2.13,0,2.7-.994,1.7-2.7-1.136-1.846-3.266-4.4-8.8-4.26,3.408-7.384,3.408-12.07,1.846-16.046-.71-1.7-2.13-1.846-3.408,0-2.414,3.124-6.39,9.8-10.792,17.608a80.933,80.933,0,0,1-11.786.568c-2.13-.142-2.982.852-1.562,2.84C158.472-57.368,161.738-55.238,166.566-55.238Zm27.69,29.11c7.668-14.91,17.466-30.956,23.288-40.612,6.106-10.366,6.532-16.472,4.828-21.3-.568-1.7-2.414-1.846-3.55-.142C203.06-64.61,170.4-10.224,166.424,21.442c-1.562,12.07,2.7,17.608,6.248,20.59,4.26,3.692,7.81,3.124,12.638-2.84,6.816-8.52,13.064-24.282,15.336-38.624,8.52-2.982,15.62-11.36,17.04-14.768,1.278-3.266,2.13-6.39,1.42-8.52-.71-1.988-2.13-1.846-2.982-.142-3.692,7.384-9.372,14.484-14.768,18.034.142-1.7.284-3.266.284-4.828C201.782-19.028,199.652-24.424,194.256-26.128Zm-.71,23.572c-2.7-.568-3.976-3.55-3.834-8.094.142-3.266,1.42-10.792,2.84-11.36.994-.426,2.414,3.976,2.272,9.23A64.9,64.9,0,0,1,193.546-2.556Zm-9.514-1.562c1.7,3.408,4.544,5.254,8.662,5.68-4.686,19.454-15.336,39.05-18.46,34.932C170.968,32.376,176.08,14.768,184.032-4.118ZM277.184-29.11c7.384-3.408,13.348-9.514,19.17-16.756,5.4-6.674,11.218-16.9,13.348-24.85,1.7-6.532.71-11.644-3.124-15.478-1.846-1.846-4.118-1.42-6.106.71-12.638,13.206-26.554,34.506-33.37,55.948-1.42.142-2.982.142-4.4.142a34.908,34.908,0,0,1-3.976-.284,40.348,40.348,0,0,0,.71-5.4c.71-10.224-3.266-11.076-6.674-15.62-2.84-3.834-5.4-5.112-9.656-4.686-8.52.71-16.9,8.8-22.436,18.46-6.39,11.076-8.52,23.572-2.414,31.95,5.4,7.526,12.78,7.668,18.034,5.964,9.656-2.982,18.034-15.762,21.584-27.264a28.154,28.154,0,0,0,4.97.426,25.137,25.137,0,0,0,3.266-.142c-.568,1.846-.994,3.55-1.42,5.538C261.422-5.254,266.818,1.278,276.332,1.7c11.218.426,21.726-11.5,23.43-15.62,1.42-3.408,2.13-6.39,1.42-8.662-.568-1.988-2.13-1.846-2.982,0C292.8-11.786,282.864-1.7,276.19-2.13,269.8-2.556,271.362-14.768,277.184-29.11Zm2.556-5.964c.852-1.846,1.846-3.976,2.982-6.106,9.656-18.176,20.448-33.512,22.01-32.518,1.846,1.278-3.834,13.774-10.082,22.862C291.668-46.576,286.414-39.618,279.74-35.074Zm-29.536.71a12.377,12.377,0,0,1-3.124-10.224c.71-4.118,3.55-4.97,4.26-.426C251.766-42.458,251.34-38.766,250.2-34.364Zm-1.136,4.26A86.437,86.437,0,0,1,244.24-19.17c-6.958,12.78-15.762,17.892-19.6,14.626-3.692-3.124-1.7-16.33,4.26-26.98A47.483,47.483,0,0,1,239.98-44.73C239.98-39.476,243.53-33.8,249.068-30.1Zm79.378-35.074c-1.846-3.834-5.964-5.538-8.236-3.124a8.815,8.815,0,0,0-.71,10.508c2.13,3.692,6.106,4.118,7.952,2.13A8.576,8.576,0,0,0,328.446-65.178ZM305.3,2.13c7.952,0,16.9-5.964,21.158-14.768,1.7-3.55,2.13-6.532.994-8.8-.568-1.136-1.562-1.278-2.272,0-4.26,9.8-12.07,19.17-18.46,19.454-4.544.284-4.828-5.254-1.42-13.49,2.982-7.1,8.946-16.756,11.928-23,3.408-7.1,2.272-13.206.142-15.478-1.136-1.278-2.13-.852-3.408.852-5.254,7.384-14.626,24.14-18.176,34.506C291.81-6.958,294.508,2.13,305.3,2.13Zm67.308-32.66c.568-.71.568-1.42-.426-1.42-1.136,0-1.988.284-2.84.284.142-1.136.142-2.13.284-3.266.852-10.224-3.408-11.218-6.674-15.62-2.84-3.834-5.254-5.112-9.656-4.828-8.52.568-17.182,8.8-22.578,18.46-6.39,11.36-8.52,23.714-2.272,31.95,5.68,7.384,12.78,7.952,17.892,6.248,10.508-3.55,19.454-17.892,22.436-29.962A5.789,5.789,0,0,0,372.608-30.53ZM360.4-34.364a11.677,11.677,0,0,1-3.124-10.082c.71-4.118,3.55-4.97,4.26-.426C361.958-42.316,361.532-38.766,360.4-34.364ZM359.4-30.53a74.936,74.936,0,0,1-4.97,11.36c-6.958,13.064-15.62,18.034-19.6,14.768-3.692-3.124-1.562-16.188,4.4-26.98A49.666,49.666,0,0,1,350.172-44.73c.142,5.254,3.55,10.224,6.532,12.5A10.8,10.8,0,0,0,359.4-30.53Z" transform="translate(45.736 263.911) rotate(-30)" fill="#cecece"/></svg>